<svg xmlns="http://www.w3.org/2000/svg" viewBox="0 0 245.85 104.68"><defs><style>.cls-1{fill:#fff;}</style></defs><g id="Layer_2" data-name="Layer 2"><g id="Layer_1-2" data-name="Layer 1"><path class="cls-1" d="M18.83,22.15c-7.07-.71-26.94,3.52-15.2,7.74,21.48-10.18,53.25,8.86,46.14,32-6.09,18.6-38,7-20-1.07C41.6,58.41,46.52,58.29,46,54.42c-6.75-10.31-27-12.63-28.8-1.33-.22,3.08,1.64,6.38,4,6.13a6.16,6.16,0,0,0-2.4,6.93c3.27,12.78,17,14.09,27.74,8.8C72.08,56.09,44.09,20.16,18.83,22.15Zm10.4,28c3.7-.25,7.17.51,9.6,3.74-.32,0-10.06,2.5-10.4,2.4C30.22,52.36,26.16,50.16,29.23,50.15ZM22.3,55.49l-1.07-1.07A2.53,2.53,0,0,1,23.37,52l1.33,1.33v1.34l-.8.8Z"/><path class="cls-1" d="M115.9,56.88c0-.37-1.05-22.37-1-22.73,9.78,6.65,27.46,1.13,27.21-10.13.75-7.12-5.18-14-11.47-13.6-7-1.59-10.91,12.92-2.13,13.07,5.18-.68,6.94-4.47,3.73-7.74,16.68,5.81-6.44,24.82-17.87,11.74-1-18.85-.33-28-2.93-27.47-11.72,9.52-8.72,22.81-.8,32L111,50.58c-6-4.45-12.12-3.26-19.4.64C88,40.51,64.21,44.34,66,54.42c1.22,8.86,19.56,4.73,13.34-4.8,3.63-.13,6.33-.43,7.73,4.53-10.08,10-18.79,9.73-28.8,2.94-1,.48-1.4.88-1.33,1.6Q64,77.89,81,77.89c13.55,1,25-12.93,13.86-21.6v-.54c14.59-8.83,19.66,6.39,17.6,18.67h.27c.54,5.55,6.45,3.36,5.87-1.87C118.8,67.44,118.48,61.39,115.9,56.88Zm-5.83-33.66c-2.33-5.31-2.63-7.76-.54-12.8h.27c.26,3.57.12,9.29.53,12.8ZM73.77,54.69c-3.33-.19-2.89-3.9,1.06-4.54C75.57,51.82,77,54.47,73.77,54.69Zm19.73,8.8c-.7,13.56-21,11.06-26.93,2.93v-.27c7.87,1.67,13.2.13,21.86-5.6v.27C90.68,60.29,93.86,60.05,93.5,63.49Z"/><path class="cls-1" d="M205.36,68.82l-1.33.8c-7.88,58.45-105.49,15.75-54.4-.8,8.15-.77,14.17-4.6,8-6.67-37.58,7.41-43.11-7.94-7.73-10.13,1.51,0,8.18,1.75,7.2-1.6-4.83-3.52-17.48-14.5-21.34-13.33-18.92-1.43-20,16.35-7.46,14.13v.27c-16.08,6.73-5.08,18.51,9.06,17.06v.27c-23.78,17.39,13.44,37.66,30.4,35.73,16.31.58,41.31-13.38,40-31.73C208,70.93,207.61,69.55,205.36,68.82ZM129.9,50.42c3.93-2.05,5.07-5,2.93-8.53v-.27q7.6,0,12,5.33a78.36,78.36,0,0,0-14.93,3.74Zm-2.4-3.2c-3.11,0-2.43-3.06,0-4C129.18,44,129.38,46.73,127.5,47.22Z"/><path class="cls-1" d="M245.36,61.09c-3.24-11.69-18.89-12.62-26.54-6.68-5.62-8.34-14.1-8.13-22.86-3.19-3.68-10.71-27.41-6.88-25.6,3.2,1.22,8.86,19.56,4.73,13.34-4.8,3.63-.13,6.33-.43,7.73,4.53-10.08,10-18.79,9.73-28.8,2.94-1,.48-1.4.88-1.33,1.6q7.06,19.2,24,19.2c13.55,1,25-12.93,13.86-21.6v-.54c14.59-8.83,19.66,6.39,17.6,18.67H217c.05,3.82,3.82,4.11,5.22,1.52C234.38,82.43,248.67,76.22,245.36,61.09Zm-67.26-6.4c-3.33-.19-2.89-3.9,1.06-4.54C179.9,51.82,181.28,54.47,178.1,54.69Zm19.73,8.8c-.7,13.56-21,11.06-26.93,2.93v-.27c7.88,1.67,13.2.13,21.86-5.6v.27C195,60.29,198.19,60.05,197.83,63.49Zm42.47,1.33c-.16,10.69-10.46,8.89-17.4,5.58A25.42,25.42,0,0,0,220.73,58C227.76,56.8,240.76,54.63,240.3,64.82Z"/></g></g></svg>